<svg xmlns="http://www.w3.org/2000/svg" viewBox="0 0 128 128" width="128" height="128">
  <!-- Dark background -->
  <rect width="128" height="128" rx="24" fill="#1a1a1a"/>
  
  <!-- POE-themed border -->
  <rect x="4" y="4" width="120" height="120" rx="20" fill="none" stroke="#af6025" stroke-width="3"/>
  
  <!-- Trade symbol - scroll/document -->
  <rect x="36" y="28" width="56" height="72" rx="4" fill="#af6025"/>
  <rect x="40" y="32" width="48" height="64" rx="2" fill="#2a2a2a"/>
  
  <!-- Lines representing search entries -->
  <line x1="48" y1="44" x2="80" y2="44" stroke="#af6025" stroke-width="3" stroke-linecap="round"/>
  <line x1="48" y1="56" x2="72" y2="56" stroke="#666" stroke-width="2" stroke-linecap="round"/>
  <line x1="48" y1="64" x2="78" y2="64" stroke="#666" stroke-width="2" stroke-linecap="round"/>
  <line x1="48" y1="72" x2="70" y2="72" stroke="#666" stroke-width="2" stroke-linecap="round"/>
  <line x1="48" y1="80" x2="76" y2="80" stroke="#666" stroke-width="2" stroke-linecap="round"/>
  
  <!-- Star accent (like a valued item) -->
  <path d="M 64 12 L 67 20 L 76 20 L 69 26 L 72 34 L 64 28 L 56 34 L 59 26 L 52 20 L 61 20 Z" fill="#ffd700" opacity="0.8"/>
</svg>
