<svg xmlns="http://www.w3.org/2000/svg" viewBox="0 0 96 96" width="96" height="96">
  <rect width="96" height="96" rx="18" fill="#1a1a1a"/>
  <rect x="3" y="3" width="90" height="90" rx="15" fill="none" stroke="#af6025" stroke-width="2"/>
  <rect x="28" y="22" width="40" height="52" rx="3" fill="#af6025"/>
  <rect x="31" y="25" width="34" height="46" rx="2" fill="#2a2a2a"/>
  <line x1="37" y1="34" x2="59" y2="34" stroke="#af6025" stroke-width="2" stroke-linecap="round"/>
  <line x1="37" y1="42" x2="55" y2="42" stroke="#666" stroke-width="2" stroke-linecap="round"/>
  <line x1="37" y1="48" x2="58" y2="48" stroke="#666" stroke-width="2" stroke-linecap="round"/>
  <line x1="37" y1="54" x2="53" y2="54" stroke="#666" stroke-width="2" stroke-linecap="round"/>
  <line x1="37" y1="60" x2="57" y2="60" stroke="#666" stroke-width="2" stroke-linecap="round"/>
  <path d="M 48 10 L 50 16 L 56 16 L 51 20 L 53 26 L 48 22 L 43 26 L 45 20 L 40 16 L 46 16 Z" fill="#ffd700" opacity="0.8"/>
</svg>
