<svg xmlns="http://www.w3.org/2000/svg" viewBox="0 0 48 48" width="48" height="48">
  <rect width="48" height="48" rx="10" fill="#1a1a1a"/>
  <rect x="2" y="2" width="44" height="44" rx="8" fill="none" stroke="#af6025" stroke-width="1.5"/>
  <rect x="14" y="11" width="20" height="26" rx="2" fill="#af6025"/>
  <rect x="16" y="13" width="16" height="22" rx="1" fill="#2a2a2a"/>
  <line x1="19" y1="17" x2="29" y2="17" stroke="#af6025" stroke-width="1.5" stroke-linecap="round"/>
  <line x1="19" y1="21" x2="27" y2="21" stroke="#666" stroke-width="1" stroke-linecap="round"/>
  <line x1="19" y1="24" x2="29" y2="24" stroke="#666" stroke-width="1" stroke-linecap="round"/>
  <line x1="19" y1="27" x2="26" y2="27" stroke="#666" stroke-width="1" stroke-linecap="round"/>
  <line x1="19" y1="30" x2="28" y2="30" stroke="#666" stroke-width="1" stroke-linecap="round"/>
  <path d="M 24 5 L 25 8 L 28 8 L 26 10 L 27 13 L 24 11 L 21 13 L 22 10 L 20 8 L 23 8 Z" fill="#ffd700" opacity="0.8"/>
</svg>
